<svg id="Capa_1" data-name="Capa 1" xmlns="http://www.w3.org/2000/svg" viewBox="0 0 606.81 606.93"><defs><style>.cls-1,.cls-2,.cls-3{fill:#120501;}.cls-2,.cls-3{font-size:65px;}.cls-2{font-family:Nexa-Black, Nexa;font-weight:800;}.cls-3{font-family:HiraKakuStdN-W8-90ms-RKSJ-H, Hiragino Kaku Gothic StdN;}</style></defs><title>projects+</title><g id="JyZrLQ"><path class="cls-1" d="M373.59,399c-18.25,0-36.5-.36-54.73.16a11.84,11.84,0,0,1-11.73-16.21c2.28-5.92,4-12.06,6.08-18.05,2.23-6.34,5.49-8.6,12.14-8.67,3.65,0,7.3-.09,10.95,0a5,5,0,0,0,4.74-2.37,79.08,79.08,0,0,1,5.2-7.12c1.84-2.2,1.69-3.23-1.17-4.4-18-7.37-35.84-14.93-53.75-22.42q-44.61-18.66-89.21-37.34c-7.13-3-9.83-7.23-8.5-13.1,1.4-6.22,6.87-9.69,13-8.21a40.39,40.39,0,0,1,4.33,1.51c7.07,2.65,5.1,3.11,8.86-3.26,3-5.06,5.38-10.48,8.94-15.19,9.94-13.12,23.59-17,39.18-14.8,22.77,3.22,37.41,16.33,44.58,38,4.32,13.07,8.62,26.14,12.78,39.26a7.79,7.79,0,0,0,4.86,5.46c9.28,3.72,18.52,7.55,27.68,11.56,2.64,1.15,3.92.53,5.36-1.77,3.43-5.49,7.09-10.83,10.72-16.18,5.75-8.49,15.3-8.35,20.56.5q22.22,37.31,44.18,74.75c3.28,5.58,3.06,10.38-.42,14.41-2.33,2.7-5.4,3.49-8.87,3.48Q401.48,398.92,373.59,399Zm-73.71-99.2c-3.54-10.73-6.35-20.66-10.08-30.23-3.92-10-11.94-15.93-22.38-18-12.41-2.44-18.78.88-24.84,12a66.63,66.63,0,0,1-3.48,6.53c-2,2.93-.93,4.07,2,5.25,15.78,6.44,31.5,13,47.24,19.57Zm52,77.28h58.88c-1.24-2.13-2.23-3.86-3.23-5.57-7.33-12.46-14.64-24.93-22-37.36-.61-1-1.17-4-3.23-1C372.26,347.59,362.25,362.09,351.91,377Z"/><path class="cls-1" d="M289.29,364.06c0,7.41.07,14.82,0,22.23-.09,6.65-2.87,10.61-8.21,12.1a10.51,10.51,0,0,1-13.15-7.5,22.71,22.71,0,0,1-.71-5.93c0-11.53,0-23,0-34.58,0-2.17-.35-3.76-2.67-4.73-10.84-4.56-21.66-9.17-32.4-14-3-1.34-3.55,0-4.24,2.38q-8.08,27.76-16.33,55.49c-2.46,8.31-9.92,11.82-16.6,7.89a10.21,10.21,0,0,1-5-11.15c1.5-7.86,4.21-15.41,6.44-23.08q8.43-28.95,17-57.86c1.35-4.55,1.48-4.63,5.76-2.8q31.32,13.36,62.59,26.84c5.33,2.28,7.41,6.57,7.43,12.1C289.31,349,289.29,356.53,289.29,364.06Z"/><path class="cls-1" d="M302.87,222.45a21.39,21.39,0,1,1,21.68-21.29A21.44,21.44,0,0,1,302.87,222.45Z"/></g><path class="cls-1" d="M83.13,420.85l11-5.51,5.77,11.51L59.21,447.24,49.3,427.48c-5.47-10.93-1.33-19.77,6.64-23.76,8.31-4.16,17.5-1.93,23.06,8.88Zm-9.7,4.86-4.14-8.25c-1.6-3.2-4.74-3.66-7.41-2.32s-4.27,4.25-2.7,7.39l4.14,8.25Z"/><path class="cls-1" d="M69,345.19l3.76,13.66L61.32,373l1.19,4.32,14.22-3.92,3.42,12.41L36.29,397.88l-5.9-21.42c-3.1-11.22,2.5-19,10.4-21.21,5.38-1.49,10.48-.87,15.77,5.63l11.65-15.49ZM42.77,382.75l10.53-2.9-2.52-9.15c-.9-3.26-3.74-4-6.37-3.3s-5,3.07-4.13,6.33Z"/><path class="cls-1" d="M67.94,317.67c.88,14.86-7.14,25.75-22.33,26.65-14.92.88-24.42-9-25.3-23.84s7.21-25.76,22.33-26.65S67.06,302.75,67.94,317.67Zm-36.66,2.16c.43,7.33,6,12.08,13.58,11.64S57.41,325.59,57,318.32c-.45-7.53-6.06-12.08-13.58-11.64C35.61,307.14,30.83,312.3,31.28,319.83Z"/><path class="cls-1" d="M48.21,274.68c6.77.89,9.9-2.45,10.58-6.88.81-5.33-2-9-8.1-9.91l-14.85-2.25L34,267.6,23.36,266l3.75-24.68,25.57,3.88C64.51,247,71.92,255.79,69.82,269.6c-2,13-9.41,19.61-23.49,17.48Z"/><path class="cls-1" d="M86.36,205.91,74.29,240.25,31.36,225.16l11.77-33.48,10.18,3.58-7.56,21.52,6.13,2.16L59,198.64l9.88,3.47-7.14,20.3,6.5,2.29,7.87-22.39Z"/><path class="cls-1" d="M104.28,161.85c1.83,7,.47,13.39-3,19.36-8.91,15.5-22.13,15.92-32.87,9.81-10.17-5.77-17-18.78-8.48-33.6a24.35,24.35,0,0,1,15.09-11.63l2.81,10.76A13.42,13.42,0,0,0,69.59,163c-4.37,7.61.11,14.16,5.26,17s12.52,3.53,17-4.24a15.68,15.68,0,0,0,1.35-11.6Z"/><path class="cls-1" d="M92.33,131.17l-8.59,10.11-8.07-6.86,25.5-30,8.08,6.86-8.63,10.16L127.23,144l-8.3,9.76Z"/><path class="cls-1" d="M140.42,87.1a17,17,0,0,0-10.2,4.39c-2.41,2-4.14,4.69-2.61,6.54,2,2.41,4.64.81,8.38-1.7,7.58-5,17.16-8.22,23.84-.16s1.9,17.58-5.92,24.14c-6.27,5.27-11.69,7.9-20.77,6.82l.28-10.78A18.23,18.23,0,0,0,147,111.81c3.26-2.69,4.56-5.71,2.94-7.66-1.45-1.76-4.37-1.2-8.51,1.64-8.24,5.64-16.47,9.16-23.68.45-6.13-7.41-1.53-16.62,5.88-22.76,5.26-4.35,10.36-6.55,16.56-6.7Z"/><path class="cls-1" d="M189.85,64.21,213.9,54l3.73,8.8L193.58,73Z"/><path class="cls-1" d="M273.78,54.07,275,66.29l-12.8,1.33-4.69-45.26,22-2.28c12.16-1.26,19,5.75,19.88,14.6,1,9.25-4.38,17.06-16.45,18.44Zm-1.12-10.8,9.18-1c3.55-.37,5.1-3.14,4.79-6.11s-2.47-5.5-6-5.14l-9.18,1Z"/><path class="cls-1" d="M349.59,67.47l-14.11-1.28-9.22-15.65-4.47-.4-1.33,14.69-12.81-1.16,4.09-45.31,22.14,2c11.59,1.05,16.94,9,16.2,17.2-.5,5.56-2.87,10.11-10.82,12.79l10.4,16.34ZM323.64,29.75l-1,10.87,9.45.86c3.37.3,5.09-2.09,5.33-4.81s-1.11-5.77-4.47-6.08Z"/><path class="cls-1" d="M375.76,76.16c-14.22-4.39-21.61-15.71-17.13-30.25,4.41-14.28,17-19.73,31.19-15.34S411.42,46.34,407,60.82,390.05,80.57,375.76,76.16Zm10.83-35.1c-7-2.16-13.44,1.44-15.66,8.65S372,63.52,379,65.66c7.21,2.22,13.44-1.43,15.66-8.64C397,49.57,393.79,43.29,386.59,41.06Z"/><path class="cls-1" d="M433.78,67.08l16.06-9L462.58,65l-.28.51L433.66,80.4,425,96.34,413.7,90.21l8.64-15.95-2.4-31.83.24-.46,12.75,6.91Z"/><path class="cls-1" d="M471.46,130.4l-28.18-23,28.81-35.23L499.56,94.6,492.73,103,475.07,88.51l-4.12,5,16.66,13.62-6.63,8.1-16.65-13.62L460,107l18.36,15Z"/><path class="cls-1" d="M506.79,162.25c-7.19-.65-12.75-4.12-17.2-9.38-11.54-13.65-7.45-26.22,1.94-34.24C500.43,111,515,109,526,122.07a24.39,24.39,0,0,1,5.82,18.15l-11.08-1a13.41,13.41,0,0,0-3.22-9.95c-5.67-6.71-13.36-4.72-17.83-.85s-7.57,10.57-1.78,17.42A15.7,15.7,0,0,0,508.38,151Z"/><path class="cls-1" d="M539.73,161.33l-6.63-11.49,9.18-5.29L562,178.68,552.78,184l-6.66-11.54-30.24,17.43-6.39-11.09Z"/><path class="cls-1" d="M530.88,227.25c-4.76-14.1.1-26.72,14.51-31.59,14.16-4.79,25.92,2.21,30.69,16.31s-.15,26.74-14.5,31.59S535.67,241.41,530.88,227.25Zm34.79-11.76c-2.35-7-9-10.06-16.16-7.64s-10.55,9-8.22,15.88c2.41,7.14,9,10.05,16.17,7.64C564.85,228.87,568.09,222.63,565.67,215.49Z"/><path class="cls-1" d="M576.66,280.8c1.94-3.39,2.27-7,1.79-11-.39-3.09-1.73-6-4.12-5.71-3.09.38-3.17,3.47-3.07,8,.14,9.08-2.32,18.88-12.7,20.17s-15.84-7.87-17.16-18c-1.07-8.12-.37-14.1,5.44-21.17l8.93,6A18.24,18.24,0,0,0,552.31,273c.52,4.19,2.36,6.91,4.88,6.6,2.26-.28,3.36-3,3.19-8.06-.31-10,1.15-18.8,12.37-20.19,9.55-1.18,14.84,7.66,16,17.21.83,6.77-.06,12.25-3.27,17.56Z"/><path class="cls-1" d="M570.74,317.51l-2.67,26-9.5-1,2.66-26Z"/><path class="cls-1" d="M568.3,392.88c2-5,2.85-7.13,3.69-9.87l10.59,4.33a80.41,80.41,0,0,0-4.54,9.73l-13.43,33a12.38,12.38,0,0,0-1.09,4.4l-8.86,3.12c-.51-1.34-.81-1.81-2.72-4.35-7.87-10.45-11.81-17.82-15.24-28.49-4.13,1.33-7,2.13-12.07,3.42l-3.35-11.9a109.83,109.83,0,0,0,20.45-5.19,96.58,96.58,0,0,0,16.91-7.2l2.41,10.61A102,102,0,0,1,547.23,401a70.38,70.38,0,0,0,5.67,13.27,45,45,0,0,0,4.26,6.24Z"/><path class="cls-1" d="M519.92,494.42a22.75,22.75,0,0,0-.43-3.47,109,109,0,0,1-1.61-19.84l-20.15-14.84a94,94,0,0,0-8.71-5.93l7.48-10.15a89.75,89.75,0,0,0,8.19,6.52l14.44,10.64c.82-7.8,2-13.37,4.86-22.82a35,35,0,0,0,12.13,1.18c-5.17,13.71-7.15,24.61-6.86,37.81.08,7,1.06,13.14,2.56,16.58Z"/><path class="cls-1" d="M477.52,534.61c-.55.45-.95.79-1.46,1.29,1.89,3.5,1.32,7.1-1.53,9.46a7.22,7.22,0,0,1-10.21-.9c-2.57-3.11-2.23-7.27.81-10.22a16.48,16.48,0,0,0-1-2.18c-5.13-10.35-7.5-22.07-6.42-32.58.82-7.87,3-15,7.54-24.5,4.7,2.1,7.09,2.64,13.28,3.17-5.33,8.64-7.93,15.7-8.68,23.75a40.65,40.65,0,0,0,4,21.79l20.91-17.35a85,85,0,0,0,8-7.14l7.47,9c-2.44,1.43-4,2.63-8.74,6.57Zm-5.59,3.45a2.63,2.63,0,1,0-.39,3.7A2.62,2.62,0,0,0,471.93,538.06Z"/><path class="cls-1" d="M418.71,516.72l-1.88-4.07,10.75-4.95a81.37,81.37,0,0,0,4,9.84l14,30.35c1.17,2.54,2.07,4.34,3.36,6.68a76,76,0,0,0-7.25,3L409.8,572.28a76.21,76.21,0,0,0-7.21,3.61c-.83-2.12-1.75-4.27-3-7l-13.79-29.93a88.3,88.3,0,0,0-4.9-9.55l10.68-4.92,1.83,3.95ZM408.58,561.4l25.33-11.67-10.85-23.56-25.33,11.67Z"/><path class="cls-1" d="M374.06,542.61a58.66,58.66,0,0,0-19,7.54,40,40,0,0,0-15.5,17.09A49.51,49.51,0,0,0,335,582.49a41.84,41.84,0,0,0-10.81-6.36c1.92-8.25,3.78-13.13,7.07-18.46,5.18-8.49,12.24-14.94,22-19.94a78,78,0,0,1,11.17-4.85,32.12,32.12,0,0,0,4.35-1.88Zm-43.52,55a35.45,35.45,0,0,1-6.2-8l5.72-3.51a34,34,0,0,0,6.2,8.29Zm7.46-4.14a36.37,36.37,0,0,1-6.23-8.09l5.91-3.6a39.71,39.71,0,0,0,6.1,8.5Zm34.84-5.68A105.68,105.68,0,0,1,353,582.58l4-10.79a80.75,80.75,0,0,0,20,6Zm2.07-16.53a93,93,0,0,1-19.46-6l3.69-11a77.14,77.14,0,0,0,20.06,6.79Z"/><path class="cls-1" d="M283.08,549.12,273,548.4a64.9,64.9,0,0,0-8.78-.23l.7-9.86c2.32.36,4.13.56,8.73.88l30.15,2.14a84.63,84.63,0,0,0,8.84.37l-.7,9.85a58.93,58.93,0,0,0-8.73-1l-9.72-.69-1.37,19.32,6,.42a73,73,0,0,0,8.45.28l-.7,9.92a57.67,57.67,0,0,0-8.33-1l-22.63-1.6a56.32,56.32,0,0,0-8.52-.15l.7-9.92c1.8.32,4.45.64,8.47.93l6.23.44Z"/><path class="cls-1" d="M210.54,579.44a9.31,9.31,0,0,0,1.25-1.3c.18-.14.43-.47.74-.78.45-.54.77-.91,1-1.11,1.39-1.53,1.39-1.53,2.11-2.25l-15.56-4.92a10.7,10.7,0,0,0-4.79-.83l-3.45-6.75a16.18,16.18,0,0,0,3.23-3.79c6.53-9.21,13.37-15.85,20.84-20.24,7.73-4.57,16.31-7.14,28-8.44a30.14,30.14,0,0,0,4.32,11.83c-9.83.32-17.55,2.15-24.77,5.8a45.66,45.66,0,0,0-16.09,14.13L223.79,566a61,61,0,0,1,19.12-10.88,32.27,32.27,0,0,0,6.33,10.3,51.21,51.21,0,0,0-22.63,13.42,25.06,25.06,0,0,0-5.1,6.53Z"/><path class="cls-1" d="M196.11,512.43a92.38,92.38,0,0,0-5.56,8.26l-19.88,32.18a60.78,60.78,0,0,0-4.56,8.25l-10.68-6.59a83.36,83.36,0,0,0,5.27-7.9l4.68-7.58a137.7,137.7,0,0,1-18.06-27l11.06-6.15a120.86,120.86,0,0,0,11.48,20.38,16.28,16.28,0,0,1,1.8,2.64l8.88-14.38a96.05,96.05,0,0,0,4.9-8.66Z"/><path class="cls-1" d="M119.55,491.07a36.65,36.65,0,0,0-3.92-5l-8.68-9.5a37.94,37.94,0,0,0-4.59-4.35l9.11-8.33a39.19,39.19,0,0,0,3.92,5l8.69,9.5a39.42,39.42,0,0,0,4.59,4.35Z"/><text class="cls-2" transform="translate(-593.28 -261.57) rotate(-123.96)"> </text><text class="cls-2" transform="translate(-602.49 -273.47) rotate(-116.63)">P</text><text class="cls-2" transform="translate(-623.06 -314.21) rotate(-105.43)">R</text><text class="cls-2" transform="matrix(-0.06, -1, 1, -0.06, -635.99, -359.39)">O</text><text class="cls-2" transform="translate(-638.85 -413.46) rotate(-81.38)">J</text><text class="cls-2" transform="translate(-631.69 -459.84) rotate(-70.64)">E</text><text class="cls-2" transform="translate(-617.63 -500.38) rotate(-60.08)">C</text><text class="cls-2" transform="translate(-594.73 -539.82) rotate(-49.65)">T</text><text class="cls-2" transform="translate(-568.19 -571.21) rotate(-39.62)">S</text><text class="cls-2" transform="translate(-534.14 -598.27) rotate(-32.71)"> </text><text class="cls-2" transform="translate(-521 -606.68) rotate(-28.98)"> </text><text class="cls-2" transform="translate(-507.9 -614.47) rotate(-23)">-</text><text class="cls-2" transform="translate(-476.1 -627.41) rotate(-17.03)"> </text><text class="cls-2" transform="matrix(0.97, -0.23, 0.23, 0.97, -461.19, -631.94)"> </text><text class="cls-2" transform="translate(-446.8 -636.35) rotate(-5.92)">P</text><text class="cls-2" transform="matrix(1, 0.09, -0.09, 1, -401.39, -641.19)">R</text><text class="cls-2" transform="translate(-354.51 -637.4) rotate(17.14)">O</text><text class="cls-2" transform="matrix(0.88, 0.48, -0.48, 0.88, -305.6, -622.29)">Y</text><text class="cls-2" transform="translate(-264.74 -600.01) rotate(39.28)">E</text><text class="cls-2" transform="matrix(0.65, 0.76, -0.76, 0.65, -231.42, -572.98)">C</text><text class="cls-2" transform="matrix(0.5, 0.87, -0.87, 0.5, -202.07, -538.01)">T</text><text class="cls-2" transform="translate(-181.28 -503.48) rotate(71.32)">O</text><text class="cls-2" transform="translate(-164.43 -452) rotate(82.96)">S</text><text class="cls-2" transform="translate(-159.98 -408.7) rotate(89.96)"> </text><text class="cls-2" transform="translate(-159.5 -393.5) rotate(95.86)">-</text><text class="cls-3" transform="translate(-163.36 -359.49) rotate(102.55)"> </text><text class="cls-3" transform="matrix(-0.38, 0.93, -0.93, -0.38, -165.52, -340.36)">マ</text><text class="cls-3" transform="matrix(-0.59, 0.81, -0.81, -0.59, -187.14, -285.5)">イ</text><text class="cls-3" transform="translate(-221.28 -237.86) rotate(140.32)">プ</text><text class="cls-3" transform="translate(-269.64 -197.36) rotate(155.27)">ロ</text><text class="cls-3" transform="translate(-325.67 -171.11) rotate(170.1)">ジ</text><text class="cls-3" transform="translate(-383.41 -160.26) rotate(-175.94)">ェ</text><text class="cls-3" transform="translate(-443.18 -163.86) rotate(-161.75)">ク</text><text class="cls-3" transform="translate(-497.02 -180.52) rotate(-148.29)">ト</text><text class="cls-3" transform="translate(-548.11 -213.8) rotate(-138.8)"> </text><text class="cls-3" transform="matrix(-0.67, -0.74, 0.74, -0.67, -564.82, -228.12)">-</text></svg>